<svg viewBox="0 0 18 18" fill="none" xmlns="http://www.w3.org/2000/svg">
<path d="M9.00008 0.666504C4.40008 0.666504 0.666748 4.39984 0.666748 8.99984C0.666748 13.5998 4.40008 17.3332 9.00008 17.3332C13.6001 17.3332 17.3334 13.5998 17.3334 8.99984C17.3334 4.39984 13.6001 0.666504 9.00008 0.666504ZM2.33341 8.99984C2.33341 5.3165 5.31675 2.33317 9.00008 2.33317C10.5417 2.33317 11.9584 2.85817 13.0834 3.7415L3.74175 13.0832C2.85841 11.9582 2.33341 10.5415 2.33341 8.99984ZM9.00008 15.6665C7.45842 15.6665 6.04175 15.1415 4.91675 14.2582L14.2584 4.9165C15.1417 6.0415 15.6667 7.45817 15.6667 8.99984C15.6667 12.6832 12.6834 15.6665 9.00008 15.6665Z" fill="currentColor"/>
</svg>
