<svg viewBox="0 0 19 19" fill="none" xmlns="http://www.w3.org/2000/svg">
<path d="M18.1665 17.1165L16.9499 15.8999L5.0082 3.9582L1.7082 0.658203L0.658203 1.7082L2.9082 3.9582H2.37487C1.44987 3.9582 0.716536 4.69987 0.716536 5.62487L0.708203 14.7915C0.708203 15.7165 1.44987 16.4582 2.37487 16.4582H15.4082L17.1165 18.1665L18.1665 17.1165ZM17.3332 5.62487C17.3749 4.69987 16.6332 3.9582 15.7082 3.99987H12.3749V2.29154C12.3749 1.36654 11.6332 0.62487 10.7082 0.666536H7.37487C6.44987 0.62487 5.7082 1.36654 5.7082 2.29154V2.5582L17.3332 14.2249V5.62487ZM10.7082 3.99987H7.3332V2.29154H10.7082V3.99987Z" fill="currentColor"/>
<path d="M18.1665 17.1165L16.9499 15.8999L5.0082 3.9582L1.7082 0.658203L0.658203 1.7082L2.9082 3.9582H2.37487C1.44987 3.9582 0.716536 4.69987 0.716536 5.62487L0.708203 14.7915C0.708203 15.7165 1.44987 16.4582 2.37487 16.4582H15.4082L17.1165 18.1665L18.1665 17.1165ZM17.3332 5.62487C17.3749 4.69987 16.6332 3.9582 15.7082 3.99987H12.3749V2.29154C12.3749 1.36654 11.6332 0.62487 10.7082 0.666536H7.37487C6.44987 0.62487 5.7082 1.36654 5.7082 2.29154V2.5582L17.3332 14.2249V5.62487ZM10.7082 3.99987H7.3332V2.29154H10.7082V3.99987Z" fill="url(#paint0_linear)"/>
<defs>
<linearGradient id="paint0_linear" x1="9.41237" y1="0.658203" x2="9.41237" y2="18.1665" gradientUnits="userSpaceOnUse">
<stop stop-color="currentColor"/>
<stop offset="1" stop-color="currentColor" stop-opacity="0"/>
</linearGradient>
</defs>
</svg>
